<?xml version="1.0" encoding="UTF-8" standalone="no"?>
<svg
   width="1024"
   height="1024"
   version="1.1"
   id="svg11"
   sodipodi:docname="logo-programer.svg"
   inkscape:version="1.3.1 (91b66b0783, 2023-11-16)"
   xmlns:inkscape="http://www.inkscape.org/namespaces/inkscape"
   xmlns:sodipodi="http://sodipodi.sourceforge.net/DTD/sodipodi-0.dtd"
   xmlns="http://www.w3.org/2000/svg"
   xmlns:svg="http://www.w3.org/2000/svg">
  <defs
     id="defs11" />
  <sodipodi:namedview
     id="namedview11"
     pagecolor="#ffffff"
     bordercolor="#000000"
     borderopacity="0.25"
     inkscape:showpageshadow="2"
     inkscape:pageopacity="0.0"
     inkscape:pagecheckerboard="0"
     inkscape:deskcolor="#d1d1d1"
     inkscape:zoom="0.21826172"
     inkscape:cx="350.49664"
     inkscape:cy="483.36465"
     inkscape:window-width="1366"
     inkscape:window-height="745"
     inkscape:window-x="-8"
     inkscape:window-y="-8"
     inkscape:window-maximized="1"
     inkscape:current-layer="svg11" />
  <circle
     style="fill:#000000;stroke-width:66.7994;stroke-linecap:round"
     id="path1"
     cx="510.85461"
     cy="513.43628"
     r="506.27292" />
  <path
     fill="#030303"
     d="m 500.8783,158.66747 c 0.26202,-0.0422 0.52157,-0.0981 0.78485,-0.12791 30.24026,-3.46103 65.18838,8.99099 88.34515,28.36508 q 5.29648,4.48805 10.19061,9.4095 4.89537,4.92144 9.35237,10.24152 4.45948,5.32133 8.4483,11.00154 3.98881,5.68022 7.4809,11.67959 c 9.10524,15.71809 15.1903,33.47157 21.87517,50.3185 l 19.8373,48.72022 q 6.85004,17.01954 13.95093,33.93725 c 2.89103,6.83763 6.172,13.66159 8.61844,20.66561 1.45669,4.17014 2.47873,8.47066 2.8252,12.88047 0.49922,6.37317 -0.46569,12.20489 -2.96057,18.09126 -4.89288,11.54174 -30.9891,44.94376 -39.97139,55.58889 q 1.26917,0.29059 2.52095,0.64701 c 30.88479,8.62836 60.04837,37.70502 75.33926,65.2542 5.40081,9.72865 9.90871,19.85096 12.84321,30.60165 6.09127,22.31479 7.34677,46.3781 10.44644,69.27283 1.95715,14.45636 5.58459,28.88665 5.9174,43.50197 q 0.1155,3.79882 -0.0732,7.59391 -0.19,3.79634 -0.68425,7.56411 -0.49426,3.76776 -1.28905,7.48462 -0.79478,3.71685 -1.88637,7.35671 c -7.65227,26.15956 -25.47032,45.93104 -49.02821,58.96673 -1.97826,13.16609 -2.62899,26.7693 -3.92548,40.03722 -0.62092,6.35454 -0.87674,13.1102 -2.78795,19.23127 -1.43309,4.58988 -3.80502,8.46693 -7.22011,11.85594 -3.94163,3.91182 -9.33001,7.25364 -14.87363,8.19372 -5.85531,0.99224 -12.29555,0.55014 -18.22413,0.53648 l -30.3508,-0.0894 -106.23896,-0.26451 -115.90675,0.10184 -32.34023,0.15895 c -7.14312,0.0347 -14.66252,0.46694 -21.74602,-0.56628 q -1.01707,-0.1453 -2.02298,-0.36014 -1.00465,-0.2136 -1.99316,-0.49549 -0.98851,-0.28191 -1.95591,-0.62963 -0.96741,-0.34896 -1.90873,-0.76124 -0.94132,-0.4123 -1.85284,-0.88793 -0.91027,-0.47563 -1.78702,-1.0121 -0.87674,-0.53648 -1.71623,-1.13133 -0.83825,-0.59485 -1.63427,-1.24433 c -3.48091,-2.82273 -6.39429,-6.31232 -7.99131,-10.52964 -3.49332,-9.22694 -3.41632,-20.71654 -4.25457,-30.4874 L 319.9471,763.6641 c -6.15709,-2.45885 -11.94535,-5.13256 -17.35981,-9.00588 -19.38278,-13.86649 -29.66282,-35.60879 -33.36352,-58.6513 q -1.48401,-9.1102 -1.23937,-18.33715 c 0.39243,-13.78079 2.80037,-27.77768 4.54269,-41.45292 3.10462,-24.3539 5.15491,-49.28154 12.83326,-72.72517 5.15493,-15.7392 12.37255,-30.06516 22.18068,-43.4461 16.96862,-23.14806 43.38524,-43.26229 72.27313,-47.82609 -15.75658,-20.01612 -45.45789,-39.96892 -48.45447,-66.41658 -0.72648,-6.40298 -0.50171,-13.02202 1.15243,-19.26605 4.1453,-15.65723 14.49487,-36.80716 20.80222,-52.37499 7.71561,-19.04003 15.91305,-37.84907 23.72305,-56.83571 6.75814,-16.42718 12.9053,-33.24181 21.14372,-49.00833 3.62371,-6.93449 8.48804,-13.48027 13.34616,-19.58893 q 1.01583,-1.29028 2.0627,-2.55573 1.04813,-1.26544 2.12605,-2.50481 1.07793,-1.23937 2.18566,-2.45141 1.10773,-1.21204 2.24526,-2.39677 1.13754,-1.18472 2.30363,-2.34088 1.16734,-1.15616 2.36199,-2.28376 1.19342,-1.1276 2.4154,-2.22415 1.22199,-1.0978 2.47004,-2.16579 1.24806,-1.06674 2.5222,-2.10369 1.27537,-1.03571 2.57435,-2.04036 1.29897,-1.00465 2.62278,-1.97702 1.32382,-0.97237 2.67123,-1.91245 1.34616,-0.93884 2.71592,-1.84539 1.36976,-0.90655 2.76188,-1.77833 1.3921,-0.87177 2.80409,-1.71002 1.41322,-0.83825 2.84507,-1.64049 1.4331,-0.80223 2.88606,-1.56969 1.45172,-0.76747 2.92207,-1.49892 1.47035,-0.73144 2.95933,-1.42688 1.48774,-0.69544 2.99285,-1.35362 1.50388,-0.65818 3.02515,-1.2791 1.52002,-0.62092 3.05495,-1.20459 1.53493,-0.58367 3.08475,-1.12884 1.54859,-0.54518 3.11083,-1.05309 1.56225,-0.50668 3.13692,-0.9761 1.57342,-0.46817 3.15802,-0.8991 1.58584,-0.42967 3.18037,-0.82086 1.59578,-0.38994 3.20025,-0.74262 1.60447,-0.35145 3.21639,-0.66315 1.61316,-0.31171 3.23253,-0.58367 1.61937,-0.27321 3.24496,-0.50543 1.62682,-0.23223 3.25737,-0.42472 z"
     id="path2"
     style="stroke-width:1.24185" />
  <path
     fill="#fefefe"
     d="m 506.0742,177.9447 c 14.23283,-0.93015 29.76836,2.10742 42.99406,7.33312 21.85778,8.63458 42.32346,26.71963 55.02633,46.35078 9.66904,14.94441 16.20241,31.98755 22.73205,48.46689 7.69326,19.41631 14.95808,38.90713 23.31199,58.05893 -13.95714,-9.77956 -39.06733,-25.90994 -55.33431,-29.79444 -12.05712,-2.87861 -25.68889,-1.49519 -38.0515,-1.37722 q -19.70318,0.28439 -39.40636,0.002 l -47.93662,-0.19994 c -9.91368,-0.0298 -20.34025,-0.67308 -30.18687,0.42595 -23.75657,2.65508 -47.5057,17.00713 -66.41906,31.0512 10.09995,-21.21078 18.22289,-43.46224 27.21761,-65.16976 7.92299,-19.12323 15.1816,-38.24274 28.77364,-54.25267 19.77769,-23.29708 46.70222,-38.38804 77.27904,-40.89409 z"
     id="path3"
     style="stroke-width:1.24185" />
  <path
     fill="#fefefe"
     d="m 444.3605,326.40032 q 48.22969,-0.36262 96.4594,-0.22105 c 12.66065,-0.0459 38.85,-1.70133 49.66278,0.77864 9.22943,2.11611 18.58179,8.92517 26.68734,13.65041 5.63055,19.19277 6.78422,38.28248 1.63925,57.74474 -8.37504,31.67461 -27.64978,54.30607 -55.61001,70.5656 -0.1987,0.11921 -0.39367,0.24464 -0.59609,0.35765 -24.55508,13.64792 -52.85062,14.9854 -79.379,6.69232 -28.83325,-9.01582 -57.87762,-30.18686 -71.98627,-57.32127 -12.06084,-23.1965 -16.03352,-51.44857 -8.11549,-76.56869 13.38963,-7.05992 25.71249,-15.11455 41.23809,-15.67835 z"
     id="path4"
     style="stroke-width:1.24185" />
  <path
     fill="#030303"
     d="m 530.71124,422.37291 c 1.29649,-0.0794 2.66129,-0.14903 3.94535,0.0844 2.54952,0.46322 6.31605,2.06395 7.64235,4.44334 0.95622,1.71375 0.84321,3.82986 0.33902,5.65786 -1.06054,3.85098 -4.10431,6.68488 -7.50077,8.56876 -11.579,6.42408 -27.26604,6.88979 -39.71557,3.12574 -3.11457,-1.55604 -6.32972,-3.6349 -8.09438,-6.73579 -1.56722,-2.75443 -1.59329,-6.57932 -0.58988,-9.53368 3.57777,-10.53709 19.30703,-0.041 26.22413,-0.1751 6.43526,-0.12543 12.02359,-2.81899 17.74975,-5.43557 z"
     id="path5"
     style="stroke-width:1.24185" />
  <path
     fill="#030303"
     d="m 460.71938,346.00663 c 6.72834,1.74604 28.15769,12.6147 31.66095,18.45885 1.05557,1.7597 1.51754,3.73548 0.95746,5.74852 -1.92362,6.92579 -18.26512,13.70629 -24.57992,17.26419 -3.11208,1.72865 -5.86277,2.5048 -9.32132,3.15306 -2.59919,-1.34742 -5.18099,-2.85502 -6.76311,-5.40951 -1.2195,-1.96957 -1.57467,-4.20117 -0.90282,-6.43402 1.66532,-5.53243 7.58894,-8.48679 12.2645,-11.04004 -4.91648,-2.17571 -9.69139,-4.26823 -11.77646,-9.68517 -0.75877,-1.96834 -0.8457,-4.11177 0.10307,-6.03043 1.72617,-3.49207 4.8991,-4.75503 8.35765,-6.02545 z"
     id="path6"
     style="stroke-width:1.24185" />
  <path
     fill="#030303"
     d="m 560.6038,346.65736 c 1.64296,-0.11798 3.55292,-0.32163 5.15739,0.0832 2.39926,0.60477 5.44054,2.93821 6.61782,5.12014 0.94256,1.74356 1.21453,3.50698 0.62961,5.4244 -1.828,5.99689 -9.19589,8.92516 -14.27506,11.6858 4.9823,1.59329 10.33219,2.85376 13.28034,7.64607 1.26296,2.05401 1.79075,4.53523 1.03073,6.86493 -0.89537,2.74201 -3.11206,4.70537 -5.66407,5.91369 -3.18783,1.51009 -5.51008,1.25054 -8.71157,0.0211 -7.66966,-3.81495 -23.68703,-9.58211 -27.55788,-17.06797 -0.92766,-1.79447 -1.19838,-3.78639 -0.48804,-5.71748 2.34461,-6.37937 23.37781,-16.65567 29.98073,-19.97389 z"
     id="path7"
     style="stroke-width:1.24185" />
  <path
     fill="#fefefe"
     d="m 640.38515,354.47853 c 10.03414,5.53989 19.5169,15.29461 25.72739,24.87672 4.32164,6.66501 8.79105,15.85345 6.75814,23.93168 -1.96336,7.79881 -8.49549,15.27723 -13.11392,21.63797 -15.60881,21.49766 -33.52993,46.20549 -56.2359,60.61466 10.50728,-0.27072 21.66033,-0.42222 32.06579,1.09035 28.56377,4.15026 50.71463,24.48926 67.29083,46.92824 q 3.00404,4.11549 5.65663,8.46569 2.65259,4.35019 4.93635,8.9053 2.28376,4.55509 4.1813,9.28281 1.89879,4.72897 3.39895,9.59826 c 6.30238,20.63208 7.29213,44.03846 10.21669,65.42558 1.78081,13.02576 4.73765,26.08132 5.68022,39.19773 q 0.36013,4.68674 0.17137,9.38341 -0.18752,4.69543 -0.92145,9.3387 c -3.15057,19.78887 -14.52963,39.09714 -30.78296,50.94066 0.61969,-12.6532 2.86744,-25.407 4.05589,-38.04902 l 7.01893,-78.18185 c 1.44302,-14.69604 4.69667,-30.90467 3.88326,-45.61685 -0.35021,-6.35827 -3.94163,-12.91647 -8.6855,-17.07046 -4.49674,-3.93542 -9.8876,-6.19806 -15.82736,-6.71716 -7.4275,-0.64825 -15.14435,-0.2136 -22.59918,-0.17138 l -36.20114,0.0509 -132.02968,0.0298 -117.61927,-0.0434 -36.18996,-0.19994 c -6.90468,-0.0472 -14.21669,-0.53399 -21.07914,0.17634 -7.27973,0.7538 -15.19403,5.17851 -19.79136,10.89847 q -1.1959,1.51133 -2.18814,3.16424 -0.99099,1.65289 -1.76094,3.42004 -0.76995,1.76715 -1.30518,3.61999 -0.53648,1.8516 -0.82831,3.7566 c -1.84539,12.02731 2.50605,41.33743 3.81868,55.09712 l 9.35485,103.54787 q -4.76497,-3.50326 -8.92517,-7.70691 c -13.7361,-13.80813 -20.89039,-33.85282 -20.83698,-53.18717 0.041,-14.97545 3.03632,-30.52713 4.88294,-45.38958 5.62931,-45.29769 8.50294,-83.39017 43.3008,-117.736 26.0689,-25.72987 50.54699,-30.79537 85.92852,-30.4191 -14.39801,-13.35235 -27.47095,-28.51906 -40.83201,-42.91955 -8.1577,-8.79228 -17.34739,-17.3834 -24.62587,-26.89224 -4.92393,-6.43278 -7.08226,-13.75223 -5.81682,-21.82798 2.58305,-16.49796 17.81681,-30.48988 30.52589,-39.84722 -0.3117,2.9556 -0.61098,5.92114 -0.74262,8.8904 -2.09251,47.22256 22.36695,88.85307 62.2924,113.16475 2.87488,1.75101 16.9649,8.61595 17.98321,10.52964 1.21329,2.2788 -1.79943,7.36417 2.24403,10.932 1.59204,1.40577 3.66469,1.72617 5.69139,1.93604 10.15833,1.05061 21.25922,0.14406 31.52559,0.17138 q 36.96985,0.23967 73.93473,-0.41975 c -6.72834,-2.73703 -13.76963,-4.87177 -20.65071,-7.20397 23.78265,-8.53274 42.19182,-20.46815 58.44514,-40.05459 24.15025,-29.10026 32.10678,-62.28868 28.61966,-99.34918 z"
     id="path8"
     style="stroke-width:1.24185" />
  <path
     fill="#fefefe"
     d="m 330.14143,577.85739 254.31456,-0.23595 c 36.79475,-0.0112 73.65035,-0.49301 110.43889,0.077 1.52251,0.95994 3.71313,2.06271 4.77863,3.53678 1.71624,2.37193 1.10525,7.07482 0.97113,9.92735 -0.99224,21.06549 -4.14902,42.27006 -6.02421,63.29829 l -14.68859,158.4612 c -0.27942,3.84973 -0.1602,8.58614 -2.92083,11.61253 -2.75939,3.0239 -6.62651,3.19155 -10.45513,3.33436 -21.02326,0.78734 -42.35947,0.0757 -63.41627,0.1068 l -117.95704,0.2819 -88.17626,-0.30301 c -13.30021,-0.0484 -27.2586,0.92145 -40.4756,0.0112 -3.2586,-0.22477 -6.81029,-0.68052 -9.23066,-3.10089 -2.03042,-2.03167 -2.72834,-4.09686 -3.13939,-6.89723 -2.0354,-13.8727 -2.5135,-28.38867 -3.70568,-42.36941 q -3.17417,-37.0456 -6.78671,-74.05147 l -7.1071,-78.02662 c -1.08289,-12.76373 -2.97671,-26.03537 -2.76684,-38.83263 1.94598,-2.665 3.70319,-4.82085 6.3471,-6.83017 z"
     id="path9"
     style="stroke-width:1.24185" />
  <path
     fill="#030303"
     d="m 531.07262,689.34937 c 2.68363,-0.39988 5.5759,-0.42844 8.06457,0.81093 3.43123,1.7063 4.32908,5.06302 5.29152,8.48307 q -0.24713,0.93635 -0.5191,1.86525 c -2.75318,9.638 -14.68486,42.94936 -19.3865,50.59294 -1.0444,1.69761 -2.59671,2.56938 -4.29804,3.51568 -1.28532,0.23222 -2.45887,0.42223 -3.76777,0.25706 -2.75194,-0.34648 -5.66407,-1.90128 -7.30953,-4.16393 -1.57715,-2.16826 -1.90748,-4.67183 -1.36479,-7.25115 1.21826,-5.7895 15.85841,-45.71371 18.83389,-50.60411 0.90406,-1.48525 3.00651,-2.5905 4.45575,-3.50574 z"
     id="path10"
     style="stroke-width:1.24185" />
  <path
     fill="#030303"
     d="m 503.21421,653.93059 c 1.81931,-0.15524 3.60633,-0.26451 5.40578,0.14033 2.45761,0.55262 4.78981,1.99813 6.14342,4.1515 2.01056,3.20024 1.65663,6.208 0.85564,9.75473 -1.78827,7.91927 -14.30113,41.17972 -18.41042,47.29954 -1.19341,1.77709 -2.85749,2.86122 -4.63582,3.98882 -1.16733,0.1602 -2.28252,0.32786 -3.46228,0.19001 -2.73331,-0.32164 -5.62309,-1.57839 -7.312,-3.82241 -1.85905,-2.4688 -1.84664,-4.97113 -1.23688,-7.87208 1.04439,-4.97113 16.45326,-47.28341 18.46133,-50.44268 0.88171,-1.3859 2.84383,-2.47625 4.19123,-3.38776 z"
     id="path11"
     style="stroke-width:1.24185" />
</svg>
